<?xml version="1.0" standalone="no"?>
<!DOCTYPE svg PUBLIC "-//W3C//DTD SVG 20010904//EN"
 "http://www.w3.org/TR/2001/REC-SVG-20010904/DTD/svg10.dtd">
<svg version="1.0" xmlns="http://www.w3.org/2000/svg"
 width="816.000000pt" height="816.000000pt" viewBox="0 0 816.000000 816.000000"
 preserveAspectRatio="xMidYMid meet">

<g transform="translate(0.000000,816.000000) scale(0.100000,-0.100000)"
fill="#000000" stroke="none">
<path d="M3925 6224 c-269 -21 -535 -91 -775 -206 -522 -249 -889 -634 -1110
-1164 -250 -601 -219 -1252 88 -1844 91 -177 122 -225 212 -338 170 -209 393
-406 600 -529 156 -92 234 -131 355 -176 167 -62 203 -73 345 -101 301 -60
564 -62 865 -5 494 92 957 372 1287 779 123 151 258 380 342 580 54 129 115
382 141 581 10 79 7 390 -5 483 -61 481 -271 917 -612 1271 -346 360 -769 577
-1263 649 -102 15 -380 27 -470 20z m340 -1069 c289 -48 551 -205 729 -438
277 -364 309 -856 82 -1261 -38 -67 -149 -213 -190 -249 -12 -10 -37 -34 -57
-52 -96 -88 -253 -176 -394 -221 -137 -43 -208 -54 -358 -54 -185 0 -320 30
-487 109 l-65 31 -140 -41 c-77 -22 -182 -53 -233 -69 -51 -17 -103 -30 -117
-30 -13 0 -40 14 -60 31 -30 27 -35 37 -35 75 0 24 6 63 14 86 29 86 116 388
116 403 0 8 -16 53 -35 100 -20 47 -48 129 -62 183 -25 87 -27 113 -27 257 1
175 15 254 73 415 184 502 717 812 1246 725z"/>
<path d="M3483 4514 c-49 -25 -108 -127 -157 -274 -18 -56 -21 -87 -21 -225 1
-155 2 -163 33 -244 42 -111 104 -214 137 -229 14 -7 44 -12 66 -12 34 0 48 7
76 35 33 33 35 39 31 89 -3 33 -13 65 -27 84 -12 18 -36 68 -52 112 -24 66
-29 96 -29 168 0 106 17 167 77 284 38 73 45 94 40 124 -7 44 -31 72 -74 90
-41 18 -60 17 -100 -2z"/>
<path d="M4559 4515 c-29 -15 -59 -70 -59 -105 0 -12 20 -59 44 -103 66 -124
80 -176 79 -292 -1 -114 -20 -182 -78 -277 -55 -89 -46 -166 25 -203 83 -43
147 -2 215 139 73 153 96 286 76 442 -19 146 -82 303 -150 374 -33 35 -43 40
-82 40 -24 -1 -56 -7 -70 -15z"/>
<path d="M4005 4181 c-127 -77 -124 -249 4 -315 41 -22 119 -23 159 -2 66 34
111 121 98 189 -8 45 -43 96 -85 124 -44 30 -132 32 -176 4z"/>
</g>
</svg>
